<?xml version="1.0" encoding="UTF-8" standalone="no"?>
<svg
   data-v-fde0c5aa=""
   viewBox="0 0 300 300"
   class="iconAbove"
   version="1.1"
   id="svg16"
   sodipodi:docname="icon.svg"
   inkscape:export-xdpi="163.84"
   inkscape:export-ydpi="163.84"
   inkscape:version="1.1 (c4e8f9ed74, 2021-05-24)"
   inkscape:export-filename="/home/verri/Projects/paic/static/icon.png"
   xmlns:inkscape="http://www.inkscape.org/namespaces/inkscape"
   xmlns:sodipodi="http://sodipodi.sourceforge.net/DTD/sodipodi-0.dtd"
   xmlns="http://www.w3.org/2000/svg"
   xmlns:svg="http://www.w3.org/2000/svg">
  <sodipodi:namedview
     id="namedview18"
     pagecolor="#ffffff"
     bordercolor="#666666"
     borderopacity="1.0"
     inkscape:pageshadow="2"
     inkscape:pageopacity="0.0"
     inkscape:pagecheckerboard="0"
     showgrid="false"
     inkscape:zoom="2.91"
     inkscape:cx="149.82818"
     inkscape:cy="150"
     inkscape:window-width="1911"
     inkscape:window-height="2125"
     inkscape:window-x="1922"
     inkscape:window-y="28"
     inkscape:window-maximized="1"
     inkscape:current-layer="svg16" />
  <!---->
  <defs
     data-v-fde0c5aa=""
     id="defs2">
    <!---->
  </defs>
  <rect
     data-v-fde0c5aa=""
     fill="#86735E"
     x="0"
     y="0"
     width="300"
     height="300"
     class="logo-background-square"
     id="rect4"
     style="fill:#795548;fill-opacity:1"
     rx="60"
     ry="60" />
  <defs
     data-v-fde0c5aa=""
     id="defs6">
    <!---->
  </defs>
  <defs
     data-v-fde0c5aa=""
     id="defs11">
    <!---->
  </defs>
  <g
     data-v-fde0c5aa=""
     id="5cfbc4f8-1cb0-42f1-95a9-b8485577311e"
     stroke="none"
     fill="#C7BDB3"
     transform="matrix(4.6185919,0,0,4.6185919,75.141965,33.181065)"
     style="fill:#ffffff">
    <path
       style="line-height:normal;text-indent:0;text-align:start;text-decoration-line:none;text-decoration-style:solid;text-decoration-color:#000000;text-transform:none;isolation:auto;mix-blend-mode:normal;fill:#ffffff;stroke-width:3.30507"
       d="m 9.9641558,-6.2173224 c -2.7663414,0 -5.0137872,2.3135469 -5.0137872,5.0798896 0,2.7696472 2.2474458,5.0732797 5.0137872,5.0732797 2.7696482,0 5.0170942,-2.3036325 5.0170942,-5.0732797 0,-2.7696473 -2.247446,-5.0798896 -5.0170942,-5.0798896 z m 0,3.3050679 c 0.9689592,0.00322 1.7437082,0.8063763 1.7120252,1.7748217 0,1.01465554 -0.760165,1.76821042 -1.7120252,1.76821042 -0.965792,-0.003256 -1.7384984,-0.80287115 -1.7087194,-1.76821042 -0.03165,-0.9671533 0.7410624,-1.7697565 1.7087194,-1.7748217 z M 27.024918,0.80594637 c -0.91267,1.3e-7 -1.652534,0.73986503 -1.652534,1.65253443 V 4.0581337 C 24.932809,4.2134791 24.503149,4.3886398 24.083406,4.5935539 L 22.946465,3.4599162 c -0.645315,-0.6451204 -1.69137,-0.6451204 -2.336685,0 l -3.394306,3.4009152 c -0.645118,0.6453142 -0.645118,1.6913684 0,2.3366826 l 1.133641,1.136943 c -0.202342,0.417094 -0.381097,0.845224 -0.535423,1.282367 H 16.21404 c -0.912668,1e-6 -1.652532,0.739865 -1.652532,1.652533 l -0.0066,4.808874 c 0,0.912671 0.739864,1.652536 1.652535,1.652536 h 1.606261 c 0.155345,0.439573 0.333813,0.865925 0.535423,1.285669 l -1.13364,1.136944 c -0.64512,0.645313 -0.64512,1.691369 0,2.336683 l 3.394305,3.40422 c 0.645314,0.64512 1.69137,0.64512 2.336683,0 l 1.136943,-1.14025 c 0.419744,0.204915 0.849403,0.380084 1.288976,0.535422 v 1.602959 c 0,0.91267 0.739866,1.652535 1.652537,1.652533 h 4.812179 c 0.912669,-1e-6 1.652532,-0.739864 1.652532,-1.652533 v -1.60957 c 0.436269,-0.155346 0.862623,-0.327202 1.282365,-0.528811 l 1.136944,1.136945 c 0.645315,0.64512 1.691369,0.64512 2.336684,0 l 3.404219,-3.404221 c 0.642918,-0.644935 0.642918,-1.688443 0,-2.333377 l -1.143513,-1.136944 c 0.201609,-0.419744 0.386693,-0.842791 0.542032,-1.285669 h 1.599653 c 0.912669,0 1.652534,-0.739866 1.652534,-1.652536 v -4.808874 c 0,-0.912685 -0.73989,-1.652556 -1.652575,-1.652533 h -1.606256 c -0.152245,-0.436973 -0.328792,-0.865096 -0.528812,-1.282367 l 1.133639,-1.136943 c 0.645119,-0.6453142 0.645119,-1.6913684 0,-2.3366826 L 38.245641,3.4566113 c -0.645315,-0.6451203 -1.69137,-0.6451203 -2.336685,0 L 34.772012,4.5935539 C 34.355186,4.3906214 33.927023,4.2118523 33.489648,4.0581337 V 2.4584808 c 0,-0.9126688 -0.739863,-1.65253349 -1.652533,-1.65253443 z M -1.0615495,1.8305177 c -2.3196368,0.023559 -4.1876419,1.9107296 -4.1875224,4.2304865 0,2.3003277 1.8805846,4.2271818 4.1875224,4.2271818 5.4829983,-0.153303 5.4829983,-8.3043657 0,-8.4576683 z M 28.677451,4.1110139 h 1.507112 V 5.128976 c -2.6e-4,0.7677288 0.528248,1.4345243 1.275755,1.6095669 1.004741,0.2313551 1.963211,0.6345742 2.835749,1.1898259 0.652543,0.409016 1.501112,0.3130549 2.045836,-0.2313552 l 0.733725,-0.7337251 1.067537,1.0642312 -0.73703,0.7304203 c -0.543974,0.5468843 -0.637251,1.397354 -0.224744,2.049142 0.548641,0.869233 0.945248,1.827702 1.173298,2.832444 0.172132,0.748932 0.837806,1.280375 1.606263,1.282365 h 1.034487 v 1.503805 h -1.021266 c -0.769946,-0.0015 -1.438868,0.529035 -1.612874,1.279063 -0.231354,1.004739 -0.627962,1.963208 -1.179908,2.832444 -0.416083,0.653248 -0.322656,1.507836 0.224744,2.055751 l 0.73703,0.727114 -1.067537,1.067538 -0.727114,-0.730422 c -0.545241,-0.546117 -1.395865,-0.642154 -2.049144,-0.231353 -0.873801,0.54765 -1.833563,0.944292 -2.839052,1.173298 -0.748712,0.175322 -1.277553,0.843909 -1.275755,1.612873 v 1.024571 h -1.507112 v -1.017959 c 0.0017,-0.768964 -0.527043,-1.437551 -1.275757,-1.612873 -1.004621,-0.231827 -1.963194,-0.630675 -2.835747,-1.17991 -0.651788,-0.412508 -1.502258,-0.319231 -2.049142,0.224744 l -0.737031,0.737031 -1.057623,-1.067538 0.727116,-0.727114 c 0.546117,-0.54524 0.642156,-1.395861 0.231356,-2.049142 -0.547476,-0.871514 -0.944131,-1.829076 -1.1733,-2.832444 -0.171365,-0.752653 -0.840957,-1.286408 -1.612873,-1.285672 h -1.034487 l 0.0066,-1.503805 h 1.021224 c 0.766495,-0.0013 1.431505,-0.529449 1.606264,-1.275756 0.231396,-1.00474 0.637919,-1.963211 1.189866,-2.835748 0.411736,-0.654761 0.314239,-1.5075176 -0.234661,-2.052447 l -0.727121,-0.7271141 1.05762,-1.0675374 0.733725,0.7271142 c 0.544418,0.54719 1.395118,0.6446089 2.049144,0.2346598 0.869232,-0.5486407 1.827701,-0.9452487 2.832444,-1.1732992 0.752548,-0.1729616 1.284999,-0.8440135 1.282366,-1.616178 z M -1.0615495,5.1355853 c 0.49575953,0 0.87914833,0.3800829 0.87914833,0.9254189 0,0.545336 -0.3866947,0.9221141 -0.87914833,0.9221141 -0.4891504,0 -0.8824542,-0.3767781 -0.8824542,-0.9254189 0,-0.5420312 0.3933038,-0.9221141 0.8824542,-0.9221141 z M 29.427702,10.357593 c -1.364994,0 -2.729987,0.518895 -3.764474,1.553382 -2.06241,2.08593 -2.06241,5.443015 0,7.528945 2.086713,2.066771 5.448842,2.066771 7.535555,0 2.06459,-2.086322 2.06459,-5.445928 0,-7.53225 -1.001365,-0.996886 -2.358107,-1.554565 -3.771081,-1.550077 z m -31.6956604,3.493456 c -2.20231,0.111135 -2.0370568,3.416202 0.1652537,3.305068 h 1.66248913 v 6.854709 c -0.072698,0.03306 -0.066092,0.03306 -0.1487213,0.05288 C -8.2699139,26.668098 -12.956499,34.5606 -11.674134,42.667933 c 1.285672,8.113941 8.1965684,14.135775 16.3072057,14.135775 8.1106383,0 15.0248403,-5.998698 16.3204263,-14.112641 1.29229,-8.110628 -3.387685,-16.016351 -11.0785792,-18.627356 l -0.04626,-0.03305 h -0.102447 v -6.874545 h 1.0774502 c 2.205155,0.0018 2.205155,-3.303287 0,-3.305066 H -2.0993221 c -0.055045,-0.0028 -0.1101978,-0.0028 -0.1652536,0 z m 5.1327712,3.305068 h 3.5562538 v 7.552081 c 0,0.96508 0.7932156,1.864058 1.3550763,2.148292 0.5155899,0.264407 0.8593189,0.304068 1.0344869,0.343729 5.8830212,1.99626 9.5483412,7.872671 8.9468182,14.119249 C 14.663904,42.859629 8.9461368,42.053193 4.7553105,40.98896 2.494645,40.41388 -0.22542677,39.766086 -2.9983788,39.607443 v 0.0066 c -1.8651928,-0.126909 -3.7384853,0.05853 -5.5425983,0.548657 -0.076016,-5.813614 3.5033719,-11.101723 9.02944503,-12.969085 h 0.019833 c 0.1916943,-0.0661 0.59491327,-0.161955 1.11050307,-0.439582 0.3476222,-0.173776 0.6472445,-0.430271 0.8725378,-0.746945 0.3227907,-0.491065 0.441359,-1.088649 0.3305073,-1.665755 l 0.042976,0.363559 v -7.55208 z m -7.7767857,25.839022 c 2.8687992,-0.08924 6.137512,0.512285 8.850972,1.203044 3.6554063,0.925418 8.6030929,2.022701 12.8864609,0.955164 -2.009482,4.967516 -6.748949,8.355211 -12.195701,8.351906 -6.0317484,0 -11.1810446,-4.170995 -12.711292,-10.037491 0.9518597,-0.290847 2.0326162,-0.436269 3.172866,-0.472623 z"
       color="#000000"
       font-weight="400"
       font-family="sans-serif"
       white-space="normal"
       overflow="visible"
       id="path13"
       sodipodi:nodetypes="ssssscccccssccccccccsccsccccccccssssccccccccssscccccccccssscccccccccccccccccccccccccccccccccccccccccccccccccccccsssssccccccccccccsccccccccccccscccccccccccccccccccccc" />
  </g>
  <!---->
</svg>
