<?xml version="1.0" encoding="UTF-8" standalone="no"?>
<svg
   data-v-fde0c5aa=""
   viewBox="0 0 300 300"
   class="iconAbove"
   version="1.1"
   id="svg16"
   sodipodi:docname="default.svg"
   inkscape:export-xdpi="163.84"
   inkscape:export-ydpi="163.84"
   inkscape:version="1.1 (c4e8f9ed74, 2021-05-24)"
   xmlns:inkscape="http://www.inkscape.org/namespaces/inkscape"
   xmlns:sodipodi="http://sodipodi.sourceforge.net/DTD/sodipodi-0.dtd"
   xmlns="http://www.w3.org/2000/svg"
   xmlns:svg="http://www.w3.org/2000/svg">
  <sodipodi:namedview
     id="namedview18"
     pagecolor="#ffffff"
     bordercolor="#666666"
     borderopacity="1.0"
     inkscape:pageshadow="2"
     inkscape:pageopacity="0.0"
     inkscape:pagecheckerboard="0"
     showgrid="false"
     inkscape:zoom="2.91"
     inkscape:cx="150"
     inkscape:cy="150"
     inkscape:window-width="3834"
     inkscape:window-height="2105"
     inkscape:window-x="3"
     inkscape:window-y="52"
     inkscape:window-maximized="1"
     inkscape:current-layer="svg16" />
  <!---->
  <defs
     data-v-fde0c5aa=""
     id="defs2">
    <!---->
  </defs>
  <rect
     data-v-fde0c5aa=""
     fill="#86735E"
     x="0"
     y="0"
     width="300px"
     height="300px"
     class="logo-background-square"
     id="rect4"
     style="fill:#795548;fill-opacity:1" />
  <defs
     data-v-fde0c5aa=""
     id="defs6">
    <!---->
  </defs>
  <g
     data-v-fde0c5aa=""
     id="2d544e1e-e771-4d8f-9a1f-37054cd83935"
     fill="#ffffff"
     transform="matrix(6.905982905982906,0,0,6.905982905982906,46.89367310613648,167.8741869804187)">
    <path
       d="M4.43 3.82L1.17 3.82L1.17 13.15L2.65 13.15L2.65 9.45L4.43 9.44C5.92 9.42 7.44 8.44 7.44 6.64C7.44 4.81 5.92 3.82 4.43 3.82ZM3.88 8.30L2.65 8.27L2.65 4.99L3.88 4.97C5.19 4.96 5.89 5.59 5.89 6.64C5.89 7.70 5.19 8.31 3.88 8.30ZM14.98 13.15L16.58 13.15L12.89 3.82L11.39 3.82L7.70 13.15L9.30 13.15L10.19 10.75L14.09 10.73ZM10.63 9.57L12.15 5.45L13.65 9.57ZM19.06 3.82L17.57 3.82L17.57 13.15L19.06 13.15ZM25.77 13.34C26.89 13.34 27.88 13.02 28.69 12.45L27.90 11.27C27.33 11.74 26.60 12.02 25.77 12.02C23.70 12.02 22.40 10.37 22.40 8.46C22.40 6.55 23.70 4.91 25.77 4.91C26.60 4.91 27.33 5.19 27.90 5.66L28.69 4.48C27.88 3.91 26.89 3.59 25.77 3.59C22.82 3.59 20.85 5.75 20.85 8.46C20.85 11.19 22.82 13.34 25.77 13.34Z"
       id="path8" />
  </g>
  <defs
     data-v-fde0c5aa=""
     id="defs11">
    <!---->
  </defs>
  <g
     data-v-fde0c5aa=""
     id="5cfbc4f8-1cb0-42f1-95a9-b8485577311e"
     stroke="none"
     fill="#C7BDB3"
     transform="matrix(4.489217974450295,0,0,4.489217974450295,78.16913450105962,35.46588988861771)">
    <path
       style="line-height:normal;text-indent:0;text-align:start;text-decoration-line:none;text-decoration-style:solid;text-decoration-color:#000;text-transform:none;block-progression:tb;isolation:auto;mix-blend-mode:normal"
       d="M17.611 1.01c-.837 0-1.517.7-1.517 1.537 0 .838.68 1.535 1.517 1.535.838 0 1.518-.697 1.518-1.535s-.68-1.537-1.518-1.537zm0 1a.52.52 0 0 1 .518.537c0 .307-.23.535-.518.535a.519.519 0 0 1-.517-.535.52.52 0 0 1 .517-.537zm5.162 1.125a.5.5 0 0 0-.5.5v.484c-.133.047-.263.1-.39.162l-.344-.343a.5.5 0 0 0-.707 0l-1.027 1.029a.5.5 0 0 0 0 .707l.343.344a3.746 3.746 0 0 0-.162.388h-.484a.5.5 0 0 0-.5.5L19 8.361a.5.5 0 0 0 .5.5h.486c.047.133.101.262.162.389l-.343.344a.5.5 0 0 0 0 .707l1.027 1.03a.5.5 0 0 0 .707 0l.344-.345c.127.062.257.115.39.162v.485a.5.5 0 0 0 .5.5h1.456a.5.5 0 0 0 .5-.5v-.487c.132-.047.261-.099.388-.16l.344.344a.5.5 0 0 0 .707 0l1.03-1.03a.5.5 0 0 0 0-.706l-.346-.344c.061-.127.117-.255.164-.389h.484a.5.5 0 0 0 .5-.5V6.906a.5.5 0 0 0-.5-.5h-.486a3.758 3.758 0 0 0-.16-.388l.343-.344a.5.5 0 0 0 0-.707l-1.029-1.03a.5.5 0 0 0-.707 0l-.344.344a3.655 3.655 0 0 0-.388-.162v-.484a.5.5 0 0 0-.5-.5h-1.456zm-8.498.31a1.28 1.28 0 0 0-1.267 1.28c0 .696.569 1.279 1.267 1.279a1.28 1.28 0 0 0 0-2.559zm8.998.69h.456v.308a.5.5 0 0 0 .386.487c.304.07.594.192.858.36a.5.5 0 0 0 .619-.07l.222-.222.323.322-.223.221a.5.5 0 0 0-.068.62c.166.263.286.553.355.857a.5.5 0 0 0 .486.388H27v.455h-.309a.5.5 0 0 0-.488.387c-.07.304-.19.594-.357.857a.5.5 0 0 0 .068.622l.223.22-.323.323-.22-.221a.5.5 0 0 0-.62-.07 2.78 2.78 0 0 1-.859.355.5.5 0 0 0-.386.488v.31h-.456v-.308a.5.5 0 0 0-.386-.488 2.787 2.787 0 0 1-.858-.357.5.5 0 0 0-.62.068l-.223.223-.32-.323.22-.22a.5.5 0 0 0 .07-.62 2.771 2.771 0 0 1-.355-.857.5.5 0 0 0-.488-.389H20l.002-.455h.309a.5.5 0 0 0 .486-.386c.07-.304.193-.594.36-.858a.5.5 0 0 0-.071-.621l-.22-.22.32-.323.222.22a.5.5 0 0 0 .62.071c.263-.166.553-.286.857-.355a.5.5 0 0 0 .388-.489v-.31zm-8.998.31c.15 0 .266.115.266.28 0 .165-.117.279-.266.279-.148 0-.267-.114-.267-.28 0-.164.119-.279.267-.279zm9.225 1.58c-.413 0-.826.157-1.139.47a1.62 1.62 0 0 0 0 2.278 1.62 1.62 0 0 0 2.28 0 1.62 1.62 0 0 0 0-2.279 1.61 1.61 0 0 0-1.141-.469zm.002.996a.612.612 0 1 1 0 0zm-9.592.061a.5.5 0 0 0 .05 1h.503v2.074c-.022.01-.02.01-.045.016-2.324.788-3.742 3.176-3.354 5.629.389 2.455 2.48 4.277 4.934 4.277s4.546-1.815 4.938-4.27c.391-2.454-1.025-4.846-3.352-5.636l-.014-.01h-.031v-2.08h.326a.5.5 0 1 0 0-1h-3.904a.5.5 0 0 0-.05 0zm1.553 1h1.076v2.285c0 .292.24.564.41.65.156.08.26.092.313.104 1.78.604 2.889 2.382 2.707 4.272-.936.466-2.666.222-3.934-.1-.684-.174-1.507-.37-2.346-.418v.002a5.081 5.081 0 0 0-1.677.166c-.023-1.759 1.06-3.359 2.732-3.924h.006c.058-.02.18-.049.336-.133a.718.718 0 0 0 .264-.226.683.683 0 0 0 .1-.504l.013.11V8.081zm-2.461.643a.5.5 0 0 0-.133.023 9.08 9.08 0 0 0-.666.236.5.5 0 0 0-.002 0 9.575 9.575 0 0 0-.67.3.5.5 0 0 0-.01.009 8.507 8.507 0 0 0-4.47 6.191l-2.998 5.963a.5.5 0 0 0 .447.721h1.098v4.086a.5.5 0 0 0 .5.5h3.22l.51 3.797a.5.5 0 1 0 .99-.133l-.566-4.23a.5.5 0 0 0-.496-.434H6.598v-4.086a.5.5 0 0 0-.5-.5H5.31l2.662-5.297a.5.5 0 0 0 .047-.148 7.497 7.497 0 0 1 3.959-5.543 7.957 7.957 0 0 1 1.188-.477.5.5 0 0 0-.165-.978zm9.725 4.14v.002a.5.5 0 0 0-.465.723 7.477 7.477 0 0 1 .66 4.33l-3.635 7.945a.5.5 0 0 0-.043.262l.467 4.408a.5.5 0 1 0 .994-.105l-.451-4.272 3.607-7.892a.5.5 0 0 0 .041-.137s.023-.164.035-.264a8.515 8.515 0 0 0-.775-4.709.5.5 0 0 0-.435-.29zM13.11 15.9c.868-.027 1.857.155 2.678.364 1.106.28 2.603.612 3.899.289-.608 1.503-2.042 2.528-3.69 2.527-1.825 0-3.383-1.262-3.846-3.037.288-.088.615-.132.96-.143z"
       color="#000"
       font-weight="400"
       font-family="sans-serif"
       white-space="normal"
       overflow="visible"
       id="path13" />
  </g>
  <!---->
</svg>
